<svg width="55" height="55" viewBox="0 0 55 55" fill="none" xmlns="http://www.w3.org/2000/svg">
<path d="M27.5 0C22.061 0 16.7442 1.61285 12.2218 4.63458C7.69948 7.65632 4.17473 11.9512 2.09332 16.9762C0.0119154 22.0012 -0.532676 27.5305 0.528417 32.865C1.58951 38.1995 4.20863 43.0995 8.05457 46.9454C11.9005 50.7914 16.8005 53.4105 22.135 54.4716C27.4695 55.5327 32.9988 54.9881 38.0238 52.9067C43.0488 50.8253 47.3437 47.3005 50.3654 42.7782C53.3872 38.2558 55 32.939 55 27.5C55 23.8886 54.2887 20.3127 52.9067 16.9762C51.5247 13.6397 49.4991 10.6082 46.9454 8.05456C44.3918 5.50095 41.3603 3.47532 38.0238 2.09331C34.6873 0.711308 31.1114 0 27.5 0ZM8.51381 35.0905C8.07995 35.0975 7.65326 34.9793 7.28483 34.7501C6.91641 34.5209 6.62186 34.1903 6.43647 33.798C6.25107 33.4056 6.18269 32.9682 6.2395 32.538C6.29631 32.1078 6.47591 31.7031 6.7568 31.3724L18.2172 19.8896C20.3301 17.7518 22.545 16.6294 24.5584 16.6294C26.3005 16.6294 27.9455 17.3934 29.5358 18.9738L38.0943 27.5249H31.7134L27.4602 23.2717C26.0093 21.8208 25.295 21.2609 24.4041 21.2609C23.4634 21.2609 22.662 21.8457 20.5839 23.9337L10.0419 34.4534C9.63431 34.8557 9.08647 35.0841 8.51381 35.0905ZM39.2267 35.9292C37.7335 37.4224 36.2975 38.3756 34.8466 38.3756C33.6993 38.3756 32.5794 37.8405 31.3624 36.6185L29.8095 35.0382C28.0674 33.2563 27.4154 32.8731 25.7082 32.8731H19.591C19.2887 32.8831 18.9876 32.8323 18.7054 32.7235C18.4232 32.6148 18.1658 32.4504 17.9484 32.2402C17.7311 32.0299 17.5582 31.7781 17.4402 31.4997C17.3221 31.2213 17.2613 30.922 17.2613 30.6196C17.2613 30.3172 17.3221 30.0179 17.4402 29.7394C17.5582 29.461 17.7311 29.2092 17.9484 28.9989C18.1658 28.7887 18.4232 28.6243 18.7054 28.5156C18.9876 28.4069 19.2887 28.356 19.591 28.3661H26.9525C28.9634 28.3661 30.0584 29.2072 31.4072 30.5312L33.3982 32.4923C34.0851 33.1792 34.4658 33.5102 34.8242 33.5102C35.1826 33.5102 35.5708 33.1792 36.2502 32.4923L44.8138 23.9337C45.0319 23.6843 45.3027 23.4865 45.6065 23.3543C45.9103 23.2222 46.2397 23.1592 46.5708 23.1697C47.014 23.1759 47.4455 23.3134 47.8105 23.5649C48.1755 23.8164 48.4576 24.1706 48.6212 24.5825C48.7848 24.9945 48.8225 25.4457 48.7296 25.8791C48.6366 26.3125 48.4171 26.7086 48.0989 27.0172L39.2267 35.9292Z" fill="#6442FF"/>
</svg>
