<svg width="231" height="59" viewBox="0 0 231 59" fill="none" xmlns="http://www.w3.org/2000/svg">
<path d="M123.16 56L109.697 43L96.2382 56L82.7771 43L69.3141 56L55.853 43L42.3919 56L28.9289 43L15.4649 56L2 43" stroke="#33C1FF" stroke-width="3.78" stroke-miterlimit="10"/>
<path d="M228.999 56L215.537 43L202.078 56L188.617 43L175.154 56L161.693 43L148.232 56L134.769 43L121.305 56L107.84 43" stroke="#33C1FF" stroke-width="3.78" stroke-miterlimit="10"/>
<path d="M123.16 36L109.697 23L96.2382 36L82.7771 23L69.3141 36L55.853 23L42.3919 36L28.9289 23L15.4649 36L2 23" stroke="#33C1FF" stroke-width="3.78" stroke-miterlimit="10"/>
<path d="M228.999 36L215.537 23L202.078 36L188.617 23L175.154 36L161.693 23L148.232 36L134.769 23L121.305 36L107.84 23" stroke="#33C1FF" stroke-width="3.78" stroke-miterlimit="10"/>
<path d="M123.16 16L109.697 3L96.2382 16L82.7771 3L69.3141 16L55.853 3L42.3919 16L28.9289 3L15.4649 16L2 3" stroke="#33C1FF" stroke-width="3.78" stroke-miterlimit="10"/>
<path d="M228.999 16L215.537 3L202.078 16L188.617 3L175.154 16L161.693 3L148.232 16L134.769 3L121.305 16L107.84 3" stroke="#33C1FF" stroke-width="3.78" stroke-miterlimit="10"/>
</svg>
