<svg width="25" height="25" viewBox="0 0 25 25" fill="none" xmlns="http://www.w3.org/2000/svg">
<path d="M10.51 21.51C10.51 22.61 11.4 23.5 12.5 23.5C13.6 23.5 14.49 22.61 14.49 21.51H10.51ZM12.5 6.5C15.26 6.5 17.5 8.74 17.5 11.5V18.5H7.5V11.5C7.5 8.74 9.74 6.5 12.5 6.5ZM12.5 2C11.67 2 11 2.67 11 3.5V4.67C7.86 5.35 5.5 8.15 5.5 11.5V17.5L3.5 19.5V20.5H21.5V19.5L19.5 17.5V11.5C19.5 8.15 17.14 5.35 14 4.67V3.5C14 2.67 13.33 2 12.5 2Z" fill="#565773"/>
<circle cx="18.5" cy="8.5" r="4" fill="#6442FF"/>
</svg>
