<svg width="20" height="21" viewBox="0 0 20 21" fill="none" xmlns="http://www.w3.org/2000/svg">
<g clip-path="url(#clip0_271_5799)">
<path d="M17.5 6.56667V4.66667C17.5 3.75 16.75 3 15.8333 3H4.16667C3.24167 3 2.5 3.75 2.5 4.66667V16.3333C2.5 17.25 3.24167 18 4.16667 18H15.8333C16.75 18 17.5 17.25 17.5 16.3333V14.4333C17.9917 14.1417 18.3333 13.6167 18.3333 13V8C18.3333 7.38333 17.9917 6.85833 17.5 6.56667ZM16.6667 8V13H10.8333V8H16.6667ZM4.16667 16.3333V4.66667H15.8333V6.33333H10.8333C9.91667 6.33333 9.16667 7.08333 9.16667 8V13C9.16667 13.9167 9.91667 14.6667 10.8333 14.6667H15.8333V16.3333H4.16667Z" fill="#565773"/>
<path d="M13.3333 11.75C14.0236 11.75 14.5833 11.1904 14.5833 10.5C14.5833 9.80964 14.0236 9.25 13.3333 9.25C12.6429 9.25 12.0833 9.80964 12.0833 10.5C12.0833 11.1904 12.6429 11.75 13.3333 11.75Z" fill="#565773"/>
</g>
<defs>
<clipPath id="clip0_271_5799">
<rect width="20" height="20" fill="white" transform="translate(0 0.5)"/>
</clipPath>
</defs>
</svg>
