<svg width="20" height="20" viewBox="0 0 20 20" fill="none" xmlns="http://www.w3.org/2000/svg">
<g clip-path="url(#clip0_271_5393)">
<path d="M15 9.1665C15 9.72484 15 10.2748 15 10.8332C16 10.8332 17.3 10.8332 18.3333 10.8332C18.3333 10.2748 18.3333 9.72484 18.3333 9.1665C17.3 9.1665 16 9.1665 15 9.1665Z" fill="#F8F7FF"/>
<path d="M13.3333 14.6752C14.1333 15.2668 15.1749 16.0502 15.9999 16.6668C16.3333 16.2252 16.6666 15.7752 16.9999 15.3335C16.1749 14.7168 15.1333 13.9335 14.3333 13.3335C13.9999 13.7835 13.6666 14.2335 13.3333 14.6752Z" fill="#F8F7FF"/>
<path d="M16.9999 4.66683C16.6666 4.22516 16.3333 3.77516 15.9999 3.3335C15.1749 3.95016 14.1333 4.7335 13.3333 5.3335C13.6666 5.77516 13.9999 6.22516 14.3333 6.66683C15.1333 6.06683 16.1749 5.29183 16.9999 4.66683Z" fill="#F8F7FF"/>
<path d="M3.33341 7.5C2.41675 7.5 1.66675 8.25 1.66675 9.16667V10.8333C1.66675 11.75 2.41675 12.5 3.33341 12.5H4.16675V15.8333H5.83341V12.5H6.66675L10.8334 15V5L6.66675 7.5H3.33341ZM7.52508 8.925L9.16675 7.94167V12.0583L7.52508 11.075L7.12508 10.8333H6.66675H3.33341V9.16667H6.66675H7.12508L7.52508 8.925Z" fill="#F8F7FF"/>
<path d="M12.9167 10.0002C12.9167 8.89183 12.4334 7.89183 11.6667 7.2085V12.7835C12.4334 12.1085 12.9167 11.1085 12.9167 10.0002Z" fill="#F8F7FF"/>
</g>
<defs>
<clipPath id="clip0_271_5393">
<rect width="20" height="20" fill="white"/>
</clipPath>
</defs>
</svg>
