<svg width="13" height="22" viewBox="0 0 13 22" fill="none" xmlns="http://www.w3.org/2000/svg">
<g clip-path="url(#clip0_403_7703)">
<path d="M0 12.1041C2.0724 13.2018 4.2349 14.3507 5.90512 15.2398L11.7619 12.1041C9.64126 15.2461 7.8743 17.8619 5.90512 20.7568C3.93242 17.8683 1.75384 14.681 0 12.1041ZM0.225252 11.2374L5.91152 8.2113L11.5238 11.2153L5.91472 14.2448L0.225252 11.2374ZM5.90512 7.24176L0 10.3421L5.87935 1.75684L11.7619 10.3613L5.90512 7.24176Z" fill="#6442FF"/>
<path d="M5.90565 15.2398L11.7624 12.1041C9.64179 15.2461 5.90565 20.7568 5.90565 20.7568V15.2398ZM5.91205 8.2113L11.5243 11.2153L5.91525 14.2448L5.91205 8.2113ZM5.90565 7.24199L5.87988 1.75684L11.7624 10.3613L5.90565 7.24199Z" fill="#6442FF"/>
<path d="M0.22583 11.2377L5.9124 11.7032L11.5246 11.2185L5.91529 14.2482L0.22583 11.2377Z" fill="#6442FF"/>
<path d="M5.91138 11.7032L11.5236 11.2185L5.91458 14.2482L5.91138 11.7032Z" fill="#4C33BC"/>
</g>
<defs>
<clipPath id="clip0_403_7703">
<rect width="13" height="21" fill="white" transform="translate(0 0.756836)"/>
</clipPath>
</defs>
</svg>
