<svg width="13" height="21" viewBox="0 0 13 21" fill="none" xmlns="http://www.w3.org/2000/svg">
<g clip-path="url(#clip0_403_6791)">
<path d="M-0.00012207 11.3473C2.07228 12.4449 4.23477 13.5939 5.90499 14.4829L11.7618 11.3473C9.64113 14.4893 7.87418 17.1051 5.90499 20C3.9323 17.1115 1.75372 13.9241 -0.00012207 11.3473ZM0.22513 10.4806L5.9114 7.45447L11.5236 10.4585L5.9146 13.488L0.22513 10.4806ZM5.90499 6.48493L-0.00012207 9.58528L5.87923 1L11.7618 9.60451L5.90499 6.48493Z" fill="#6442FF"/>
<path d="M5.9054 14.4829L11.7622 11.3473C9.64154 14.4893 5.9054 20 5.9054 20V14.4829ZM5.91181 7.45447L11.5241 10.4585L5.91501 13.488L5.91181 7.45447ZM5.9054 6.48516L5.87964 1L11.7622 9.60451L5.9054 6.48516Z" fill="#6442FF"/>
<path d="M0.22583 10.4809L5.9124 10.9463L11.5246 10.4617L5.91529 13.4914L0.22583 10.4809Z" fill="#6442FF"/>
<path d="M5.91125 10.9463L11.5235 10.4617L5.91446 13.4914L5.91125 10.9463Z" fill="#4C33BC"/>
</g>
<defs>
<clipPath id="clip0_403_6791">
<rect width="13" height="21" fill="white"/>
</clipPath>
</defs>
</svg>
