<svg width="13" height="21" viewBox="0 0 13 21" fill="none" xmlns="http://www.w3.org/2000/svg">
<g clip-path="url(#clip0_403_3508)">
<path d="M0 11.3473C2.0724 12.4449 4.2349 13.5939 5.90512 14.4829L11.7619 11.3473C9.64126 14.4893 7.8743 17.1051 5.90512 20C3.93242 17.1115 1.75384 13.9241 0 11.3473ZM0.225252 10.4806L5.91152 7.45447L11.5238 10.4585L5.91472 13.488L0.225252 10.4806ZM5.90512 6.48493L0 9.58528L5.87935 1L11.7619 9.60451L5.90512 6.48493Z" fill="#6442FF"/>
<path d="M5.90565 14.4829L11.7624 11.3473C9.64179 14.4893 5.90565 20 5.90565 20V14.4829ZM5.91205 7.45447L11.5243 10.4585L5.91525 13.488L5.91205 7.45447ZM5.90565 6.48516L5.87988 1L11.7624 9.60451L5.90565 6.48516Z" fill="#6442FF"/>
<path d="M0.22583 10.4809L5.9124 10.9463L11.5246 10.4617L5.91529 13.4914L0.22583 10.4809Z" fill="#6442FF"/>
<path d="M5.91138 10.9463L11.5236 10.4617L5.91458 13.4914L5.91138 10.9463Z" fill="#4C33BC"/>
</g>
<defs>
<clipPath id="clip0_403_3508">
<rect width="13" height="21" fill="white"/>
</clipPath>
</defs>
</svg>
