<svg width="1116" height="57" viewBox="0 0 1116 57" fill="none" xmlns="http://www.w3.org/2000/svg">
<g opacity="0.5">
<path fill-rule="evenodd" clip-rule="evenodd" d="M11.0478 33.3415C11.4582 34.2393 11.9877 35.0504 12.62 35.7612C11.2261 36.5112 9.76517 36.8457 8.17278 36.8457C3.43677 36.8457 0 33.725 0 28.7441C0 23.7278 3.61231 20.6071 8.17278 20.6071C9.79566 20.6071 11.0754 20.9595 12.3649 21.6487C11.7636 22.387 11.2677 23.2246 10.8908 24.1468C10.1127 23.8354 9.31214 23.6935 8.48755 23.6935C5.68144 23.6935 3.50663 25.4823 3.50663 28.7441C3.50663 31.8304 5.61174 33.7948 8.62856 33.7948C9.49283 33.7948 10.2908 33.6383 11.0478 33.3415ZM20.5722 20.6071C25.2366 20.6071 28.604 23.9043 28.604 28.7441C28.604 33.5496 25.2366 36.8457 20.5722 36.8457C15.9432 36.8457 12.5763 33.5496 12.5763 28.7441C12.5763 23.9043 15.9434 20.6071 20.5722 20.6071ZM20.5722 23.5883C17.9772 23.5883 16.0829 25.588 16.0829 28.7441C16.0829 31.8662 17.977 33.8645 20.5722 33.8645C23.2385 33.8645 25.0972 31.8662 25.0972 28.7441C25.0972 25.588 23.2386 23.5883 20.5722 23.5883ZM30.8142 36.4951V20.9575H34.2853V36.4951H30.8142ZM37.3145 21.9402C39.4893 21.0985 42.1556 20.6071 44.4343 20.6071C48.3983 20.6071 50.9235 22.1154 50.9235 26.4994V36.4951H47.4868V26.8156C47.4868 24.5708 46.0836 23.7631 44.154 23.7631C42.9263 23.7631 41.7 23.9387 40.787 24.2192V36.4953H37.3145V21.9402ZM53.8311 12.6453H57.3024V21.3791C58.0388 20.9932 59.4772 20.6073 60.8445 20.6073C65.334 20.6073 68.7011 23.4827 68.7011 28.4637C68.7011 33.4785 65.3695 36.8455 59.6182 36.8455C57.3736 36.8455 55.4095 36.3898 53.8311 35.8288V12.6453ZM57.3024 33.5496C57.9689 33.7592 58.8464 33.8645 59.7221 33.8645C62.914 33.8645 65.1945 32.1113 65.1945 28.5334C65.1945 25.5167 63.0552 23.728 60.4244 23.728C59.0569 23.728 58.0044 24.0795 57.3024 24.4654V33.5498V33.5496ZM78.731 26.0782C78.731 24.3945 77.4678 23.6239 75.7499 23.6239C73.961 23.6239 72.558 24.1494 71.2605 24.8859V21.8689C72.6279 21.0985 74.3813 20.6071 76.3112 20.6071C79.7123 20.6071 82.1323 22.0101 82.1323 25.9026V36.1791C80.6596 36.565 78.5558 36.8112 76.8024 36.8112C72.7689 36.8112 69.8221 35.5836 69.8221 32.0757C69.8221 28.9194 72.5225 27.3767 77.0118 27.3767H78.731V26.078V26.0782ZM78.731 29.6913H77.258C74.837 29.6913 73.259 30.3919 73.259 31.9703C73.259 33.5838 74.7328 34.215 76.8368 34.215C77.3637 34.215 78.1 34.1453 78.7309 34.0396V29.6913H78.731ZM84.6577 32.2864C86.0962 33.3733 87.8139 34.0399 89.3919 34.0399C90.9359 34.0399 91.953 33.514 91.953 32.2864C91.953 31.0231 91.0413 30.5673 89.0417 30.0417C85.8154 29.3054 84.4468 28.0079 84.4468 25.3071C84.4468 22.1498 86.8325 20.6074 89.9887 20.6074C91.7421 20.6074 93.1451 20.9932 94.4426 21.7994V24.9911C93.0754 24.0097 91.7421 23.4131 90.0942 23.4131C88.5859 23.4131 87.7797 24.1494 87.7797 25.1664C87.7797 26.1832 88.4451 26.7101 90.2339 27.2002C93.7774 27.9721 95.3201 29.3053 95.3201 32.1113C95.3201 35.3727 92.8302 36.8455 89.4631 36.8455C87.6387 36.8455 85.8155 36.3554 84.6577 35.5836V32.2864ZM100.072 29.5162V29.5859C100.283 32.356 102.667 33.8645 105.087 33.8645C107.226 33.8645 108.77 33.3733 110.313 32.3561V35.4085C108.91 36.3898 106.841 36.8455 104.842 36.8455C100.002 36.8455 96.7053 33.7592 96.7053 28.8496C96.7053 23.9043 99.9312 20.6073 104.211 20.6073C108.735 20.6073 110.874 23.5184 110.874 27.7615V29.5161H100.072V29.5162ZM107.613 27.2714C107.543 24.8502 106.35 23.5184 104.106 23.5184C102.106 23.5184 100.633 24.9214 100.178 27.2714H107.613ZM143.864 36.523H141.93L135.945 20.998H137.696L142.923 34.9026L148.15 20.998H149.849L143.864 36.523ZM159.359 30.9037H150.734V30.956C150.734 33.7526 152.746 35.3992 154.968 35.3992C156.588 35.3992 157.712 34.981 158.862 34.1185V35.6867C157.843 36.4446 156.379 36.7844 154.968 36.7844C151.674 36.7844 149.165 34.5367 149.165 30.8253C149.165 27.4014 151.518 24.8662 154.576 24.8662C157.451 24.8662 159.359 26.5912 159.359 29.8321V30.9037H159.359ZM150.838 29.5969H157.79C157.686 27.2185 156.405 26.2514 154.497 26.2514C152.72 26.2514 151.282 27.4537 150.838 29.5969ZM161.106 36.523V25.7287C162.621 25.1798 164.346 24.8662 165.888 24.8662C168.763 24.8662 170.514 25.9901 170.514 28.8389V36.523H168.946V29.1526C168.946 26.8264 167.3 26.3298 165.758 26.3298C164.556 26.3298 163.484 26.5389 162.674 26.748V36.523H161.106ZM171.477 26.4605V25.1276H173.228V22.3571H174.797V25.1276H178.011V26.4605H174.797V33.4128C174.797 34.8764 175.372 35.4514 176.443 35.4514C177.175 35.4514 177.776 35.2162 178.56 34.8242V36.2094C177.881 36.5492 177.097 36.7844 176.103 36.7844C174.457 36.7844 173.228 35.9219 173.228 33.5696V26.4605H171.477ZM188.932 25.1276V36.3923C187.547 36.6537 186.135 36.7844 184.959 36.7844C181.666 36.7844 179.784 35.6605 179.784 32.8117V25.1276H181.353V32.7332C181.353 34.8764 183.051 35.4253 184.855 35.4253C185.639 35.4253 186.528 35.373 187.364 35.2685V25.1276H188.932ZM193.162 27.0094V36.523H191.594V26.173C192.796 25.4151 194.26 24.9446 195.828 24.9446C196.455 24.9446 197.082 25.023 197.736 25.1798V26.7219C197.056 26.4867 196.246 26.4344 195.723 26.4344C194.599 26.4344 193.763 26.6696 193.162 27.0094ZM207.898 30.9037H199.273V30.956C199.273 33.7526 201.286 35.3992 203.507 35.3992C205.128 35.3992 206.252 34.981 207.402 34.1185V35.6867C206.382 36.4446 204.919 36.7844 203.507 36.7844C200.214 36.7844 197.705 34.5367 197.705 30.8253C197.705 27.4014 200.057 24.8662 203.115 24.8662C205.99 24.8662 207.898 26.5912 207.898 29.8321V30.9037ZM199.378 29.5969H206.33C206.226 27.2185 204.945 26.2514 203.037 26.2514C201.26 26.2514 199.822 27.4537 199.378 29.5969ZM123.937 12C124.31 12 124.613 12.3027 124.613 12.6761V43.9137C124.613 44.2871 124.31 44.5898 123.937 44.5898C123.563 44.5898 123.261 44.2871 123.261 43.9137V12.6761C123.261 12.3027 123.563 12 123.937 12ZM212.573 24.8662C213.696 24.8662 214.794 25.1014 215.683 25.7287V27.4276C214.794 26.6957 213.879 26.1992 212.573 26.1992C211.318 26.1992 210.508 26.8787 210.508 27.9503C210.508 28.9957 211.135 29.5446 212.886 30.0935C214.873 30.6946 216.206 31.4526 216.206 33.5173C216.206 35.7651 214.454 36.7844 212.311 36.7844C211.031 36.7844 209.802 36.4185 209.096 35.8696V34.0923C210.063 34.9548 211.057 35.4514 212.311 35.4514C213.749 35.4514 214.663 34.9026 214.663 33.6219C214.663 32.2628 213.67 31.8969 211.867 31.2957C209.854 30.6162 208.992 29.7798 208.992 27.9503C208.992 25.9378 210.508 24.8662 212.573 24.8662Z" fill="#6442FF"/>
<path fill-rule="evenodd" clip-rule="evenodd" d="M30.3572 16.1876C30.3572 14.9953 31.3752 14.0485 32.532 14.0485C33.6899 14.0485 34.7068 14.9955 34.7068 16.1878C34.7068 17.4155 33.6899 18.3981 32.532 18.3981C31.3752 18.3981 30.3572 17.4155 30.3572 16.1878V16.1876Z" fill="#6442FF"/>
<g clip-path="url(#clip0_210_2204)">
<path fill-rule="evenodd" clip-rule="evenodd" d="M289 20.4787C289 28.199 295.329 34.4575 303.136 34.4575V6.5C295.329 6.5 289 12.7584 289 20.4787ZM307.895 45.0383H321V15.1533H307.895V45.0383ZM303.934 44.2761C303.934 47.7136 301.116 50.5 297.641 50.5C294.165 50.5 291.346 47.7136 291.346 44.2761C291.346 40.8386 294.165 38.0522 297.641 38.0522C301.116 38.0522 303.934 40.8386 303.934 44.2761Z" fill="#6442FF"/>
</g>
<g clip-path="url(#clip1_210_2204)">
<path fill-rule="evenodd" clip-rule="evenodd" d="M426.897 28.3114C426.897 30.4365 428.638 32.1655 430.779 32.1655C432.431 32.1655 433.841 31.1339 434.4 29.687H438.381C437.725 33.2654 434.57 35.989 430.779 35.989C426.514 35.989 423.045 32.5448 423.045 28.3114C423.045 24.0781 426.514 20.6339 430.779 20.6339C434.57 20.6339 437.725 23.3575 438.381 26.9359H434.401C433.841 25.4894 432.431 24.4574 430.779 24.4574C428.638 24.4574 426.897 26.1864 426.897 28.3114ZM425.949 50H435.857V40.1638H425.949V50ZM457 27.5392V30.4034H455.561C454.64 33.6219 451.66 35.989 448.126 35.989C443.862 35.989 440.393 32.5448 440.393 28.3114C440.393 24.0781 443.862 20.6339 448.126 20.6339C451.502 20.6339 454.371 22.7959 455.423 25.796H451.058C450.346 24.9786 449.298 24.4574 448.126 24.4574C445.985 24.4574 444.244 26.1864 444.244 28.3114C444.244 30.4365 445.985 32.1655 448.126 32.1655C449.49 32.1655 450.689 31.462 451.382 30.4034H448.915V27.5392H451.93H455.82H457ZM393 30.47H402.908V20.6339H393V30.47ZM443.334 16.8362H453.242V7H443.334V16.8362ZM413.47 32.1655H411.04V24.4574H413.47C415.61 24.4574 417.352 26.1864 417.352 28.3114C417.352 30.4365 415.61 32.1655 413.47 32.1655ZM413.47 20.6339H407.188V35.989H413.47C417.734 35.989 421.203 32.5448 421.203 28.3114C421.203 24.0781 417.734 20.6339 413.47 20.6339Z" fill="#6442FF"/>
</g>
<g clip-path="url(#clip2_210_2204)">
<path fill-rule="evenodd" clip-rule="evenodd" d="M572.364 15.5638C568.791 15.5638 565.6 17.0316 563.303 19.4566L546.71 35.0915C545.179 36.4954 543.264 37.2612 541.286 37.1974C541.158 37.1974 541.031 37.1974 540.903 37.1974C536.5 36.8783 532.926 33.2408 532.607 28.8375C532.416 26.2849 533.309 23.8599 535.032 22.0092C536.755 20.1586 539.116 19.1375 541.669 19.1375C543.775 19.1375 545.881 19.9033 547.476 21.2434C548.242 21.8816 549.391 21.8178 550.029 21.052C550.667 20.2862 550.603 19.1375 549.837 18.4993C547.54 16.5849 544.668 15.5 541.669 15.5C538.159 15.5 534.841 16.9678 532.416 19.5204C529.991 22.1369 528.778 25.4553 529.033 29.029C529.48 35.2191 534.458 40.2606 540.648 40.7073C540.839 40.7073 541.031 40.7073 541.158 40.7073C541.286 40.7073 541.414 40.7073 541.541 40.7073C544.285 40.7073 547.093 39.5586 549.199 37.5803L559.857 27.5612C559.857 27.7527 559.857 27.8803 559.857 28.0717C559.857 35.0277 565.536 40.7073 572.492 40.7073C574.726 40.7073 576.959 40.1329 578.874 38.9842C579.703 38.4737 580.022 37.3888 579.512 36.4954C579.001 35.6658 577.916 35.3467 577.023 35.8573C575.619 36.6869 574.087 37.0698 572.428 37.0698C567.451 37.0698 563.366 33.0494 563.366 28.0079C563.366 25.6467 564.324 23.477 565.791 21.8178L566.047 21.5625C566.11 21.4987 566.11 21.4987 566.174 21.4349C567.77 19.9033 570.003 18.9461 572.364 18.9461C577.342 18.9461 581.426 22.9665 581.426 28.0079V38.8566C581.426 39.8777 582.256 40.6435 583.213 40.6435C584.234 40.6435 585 39.8139 585 38.8566V28.0079C585 21.2434 579.32 15.5638 572.364 15.5638Z" fill="#6442FF"/>
</g>
<g clip-path="url(#clip3_210_2204)">
<path fill-rule="evenodd" clip-rule="evenodd" d="M729.777 36.5281C730.249 36.6667 730.846 36.8377 731.438 37.0263C731.47 37.0364 731.494 37.2034 731.462 37.2663C731.357 37.4724 731.363 37.7509 730.942 37.6563C730.274 37.5062 729.534 37.2967 728.904 37.4474C727.916 37.684 727.894 38.7675 728.575 39.4002C729.678 40.2525 730.777 41.1069 731.568 42.2824C731.851 42.6596 731.459 43.9073 731.097 44.2649C729.916 45.3552 728.08 45.1233 726.876 44.2818C726.976 44.0817 727.057 43.8668 727.19 43.6937C727.547 43.6647 728.029 44.127 728.395 44.1365C728.92 44.1723 729.457 44.1277 729.981 44.0574C730.53 43.9837 731.023 42.8231 730.648 42.4128C729.607 41.0231 727.204 40.2221 727.282 38.2619C727.44 36.8992 728.582 36.6924 729.777 36.5281ZM700.28 36.7417C700.335 36.7336 700.464 36.8546 700.465 36.9168C700.543 38.9689 700.206 41.1272 700.877 43.1023C701.331 44.0892 702.621 44.1257 703.579 44.1459C704.236 44.1682 705.225 43.3923 705.257 42.8231C705.367 40.8764 705.44 38.927 705.554 36.9803C705.559 36.8898 705.82 36.7586 705.967 36.7498C706.08 36.7431 706.302 36.8972 706.305 36.9851C706.331 37.8131 706.321 38.6418 706.321 39.4705H706.316C706.304 41.2191 706.658 43.3706 704.934 44.4636C704.05 45.0226 703.096 45.0138 702.118 44.8644C700.67 44.7232 699.843 43.3024 699.72 41.9755C699.651 40.2877 699.684 38.5951 699.713 36.9053C699.714 36.8445 700.079 36.7735 700.28 36.7417ZM662.4 36.7123C663.451 38.8801 664.149 41.2479 665.239 43.3838C666.032 41.454 666.854 39.533 667.675 37.614C667.88 37.1226 668.068 36.6238 668.271 36.131C668.299 36.0634 668.369 35.9654 668.422 35.9648C668.69 35.96 668.96 35.9823 669.229 35.9951C668.628 37.6018 667.83 39.1268 667.224 40.7328C666.986 41.3033 666.739 41.8697 666.502 42.4409C666.1 43.2716 665.936 44.249 665.287 44.9304C664.522 44.4112 664.365 43.4764 663.99 42.6862C663.718 42.038 663.456 41.3858 663.177 40.7402C662.46 39.1775 661.814 37.5843 661.176 35.9877C661.328 35.9715 661.48 35.9559 661.803 35.9228C662.298 35.7809 662.234 36.4028 662.4 36.7123ZM713.657 36.8345C714.901 37.0238 715.478 38.4615 715.221 39.6302C715.045 40.1649 714.682 40.6738 714.289 41.0882C713.913 41.4836 714.272 41.6628 714.414 41.8662C714.793 42.4083 715.171 42.9741 715.653 43.4134C716.053 43.7778 716.618 43.9528 717.074 44.2637C717.181 44.3367 717.155 44.6179 717.171 44.8052C717.175 44.8437 717.089 44.9255 717.044 44.9268C716.194 44.9444 715.503 44.6071 714.981 43.9413C714.46 43.2769 713.994 42.5644 713.431 41.9399C713.248 41.7364 712.837 41.679 712.526 41.6661C711.596 41.6283 711.595 41.6499 711.595 42.584C711.595 43.2647 711.602 43.946 711.586 44.6267C711.584 44.7024 711.441 44.8471 711.384 44.8369C711.167 44.7977 710.776 44.7146 710.774 44.6375C710.736 43.3621 710.747 42.0852 710.747 40.809C710.747 39.5707 710.738 38.3324 710.762 37.0948C710.764 36.9744 710.966 36.7561 711.077 36.7561C711.937 36.7528 712.802 36.7453 713.657 36.8345ZM680.341 36.7259C680.542 36.7928 680.799 36.8016 680.93 36.9361C681.403 37.418 681.84 37.9378 682.281 38.4515C683.602 40.0305 684.966 41.6243 686.306 43.1607C686.41 41.1072 686.307 39.022 686.353 36.9584C686.353 36.882 686.51 36.7333 686.568 36.7448C686.782 36.7874 687.165 36.8813 687.167 36.9597C687.088 39.5729 687.412 42.3611 687.066 44.8972C686.928 44.9107 686.727 44.9074 686.651 44.8215C686.076 44.178 685.527 43.5116 684.965 42.8559C683.688 41.3695 682.386 39.8649 681.104 38.4042C681.002 40.4631 681.109 42.5585 681.043 44.6289C681.042 44.7059 680.676 44.7925 680.472 44.8371C680.427 44.8472 680.292 44.6992 680.292 44.6235C680.28 43.3426 680.284 42.0617 680.284 40.7801C680.329 39.4343 680.189 38.0554 680.341 36.7259ZM723.613 36.7555C723.688 36.7576 723.772 37.1029 723.809 37.2963C723.82 37.351 723.682 37.495 723.611 37.4963C723.183 37.5761 720.76 37.3395 720.759 37.6592C720.789 40.9463 720.226 39.9074 723.323 40.1068C723.397 40.1088 723.522 40.3177 723.52 40.4279C723.517 40.5529 723.401 40.78 723.327 40.7821C722.533 40.8078 721.737 40.7942 720.942 40.8064C720.878 40.8071 720.761 40.9193 720.76 40.9808C720.749 41.9521 720.749 42.9234 720.76 43.8947C720.72 44.2523 723.325 43.9961 723.759 44.08C724.029 44.1489 723.816 44.8018 723.765 44.8255C723.25 44.7633 719.809 45.079 719.886 44.6275L719.878 42.7132L719.878 40.799C719.878 39.5322 719.872 38.2649 719.89 36.9989C719.891 36.909 720.056 36.744 720.148 36.7433C721.303 36.7258 722.459 36.7211 723.613 36.7555ZM676.154 36.7474C676.364 36.8468 676.372 37.3875 676.161 37.4889C675.248 37.5133 674.334 37.5031 673.42 37.5119C673.37 37.5119 673.279 37.6045 673.278 37.6545C673.306 40.9004 672.752 39.9135 675.787 40.1129C675.883 40.1176 675.99 40.3988 676.039 40.5678C676.053 40.6165 675.883 40.7854 675.795 40.7875C675.403 40.8666 673.279 40.6415 673.278 40.9524C673.269 41.9474 673.27 42.943 673.277 43.938C673.277 43.9826 673.361 44.0644 673.407 44.0651C674.359 44.0725 675.311 44.0671 676.262 44.08C676.319 44.0806 676.428 44.2165 676.419 44.276C676.394 44.4706 676.329 44.8242 676.271 44.8248C675.754 44.764 672.35 45.0729 672.402 44.641C672.391 43.3641 672.394 42.088 672.394 40.8118C672.394 39.5302 672.39 38.2493 672.404 36.9684C672.405 36.8887 672.551 36.7427 672.632 36.742C673.806 36.7271 674.98 36.7251 676.154 36.7474ZM696.333 36.7552C696.396 36.7559 696.469 37.1108 696.502 37.3068C696.511 37.3629 696.394 37.4981 696.334 37.4988C695.572 37.5123 694.809 37.5028 694.047 37.5164C693.981 37.5177 693.861 37.6387 693.861 37.7043C693.851 40.0187 693.857 42.3331 693.827 44.6475C693.827 44.7171 693.458 44.8009 693.254 44.8374C692.835 44.9543 693.124 41.6443 693.043 41.1738C693.043 40.0072 693.045 38.8405 693.036 37.6739C693.073 37.3467 690.968 37.5725 690.594 37.4988C690.544 37.4981 690.449 37.3589 690.457 37.2953C690.481 37.104 690.543 36.7559 690.594 36.7552C692.508 36.7269 694.42 36.7255 696.333 36.7552ZM711.596 39.18C711.596 39.6985 711.594 40.2169 711.599 40.7354C711.599 40.784 711.64 40.8706 711.668 40.8733C712.926 40.997 713.495 41.2254 714.268 39.8999C714.776 38.3446 714.067 37.4753 712.471 37.4733C711.143 37.3246 711.695 38.3175 711.596 39.18ZM737 12V32.082H657V12H737ZM735.56 13.4492H658.44V30.6328H735.56V13.4492ZM729.133 18.6397C729.537 19.1183 729.687 20.6783 729.345 21.2231C729.069 21.6605 728.717 22.0525 728.475 22.5054C728.42 22.6061 728.666 22.8887 728.8 23.0685C729.102 23.4754 729.384 23.9073 729.743 24.2581C730.515 25.1828 731.597 24.7948 731.481 25.712C731.44 26.2372 731.444 26.6184 730.761 26.3724C730.19 26.1669 729.545 26.0851 729.053 25.7627C728.174 25.1355 727.709 23.9188 726.912 23.209C726.674 23.0272 726.191 23.159 725.821 23.1827C725.799 23.1834 725.784 23.4747 725.784 23.6308C725.78 24.469 725.787 25.3071 725.774 26.1446C725.772 26.2142 725.647 26.3413 725.579 26.342C724.294 26.3608 724.244 26.3584 724.243 25.1594L724.242 25.0097C724.242 23.9816 724.242 22.9528 724.242 21.9247C724.242 20.5296 724.239 19.1345 724.249 17.7394C724.249 17.6772 724.357 17.5636 724.418 17.5602C726.067 17.4926 728.008 17.1033 729.133 18.6397ZM667.105 16.4626C668.469 16.7344 669.464 16.6668 670.583 17.2096C670.669 17.4941 670.38 18.022 670.323 18.3397C670.234 18.8217 669.918 18.5263 669.727 18.5033C668.777 18.1903 667.771 18.137 666.774 18.1288C666.059 18.1295 665.495 18.4837 665.002 19.0049C663.5 20.598 663.825 23.3234 665.725 24.4258C666.65 25.0227 667.643 24.9774 668.646 24.8159C669.082 24.8253 669.997 24.2028 670.286 24.5435C670.53 25.097 671.1 25.8021 670.189 25.9325C669.139 26.1394 668.075 26.4145 667.021 26.3976C665.013 26.2894 662.816 24.4448 662.572 22.3805C662.229 20.3763 663.132 18.1106 664.92 17.1116C665.625 16.7337 666.479 16.6364 667.105 16.4626ZM681.78 21.8977C681.911 27.8851 673.004 27.8324 673.015 21.9268C672.987 15.9373 681.897 15.9245 681.78 21.8977ZM686.679 18.6823L686.679 18.828C686.679 20.7619 686.678 22.6951 686.687 24.6289C686.688 24.6897 686.804 24.8033 686.867 24.804C687.354 24.8912 690.258 24.6201 690.226 24.9959C690.244 26.301 690.242 26.3493 689.035 26.3511L688.89 26.3512C687.716 26.3512 686.541 26.3552 685.367 26.341C684.897 26.3978 685.237 22.5071 685.139 21.9008C685.139 20.4908 685.136 19.0815 685.147 17.6715C685.147 17.6059 685.264 17.4836 685.329 17.4829C686.629 17.4647 686.677 17.4665 686.679 18.6823ZM694.274 18.6486L694.274 18.7962C694.274 20.7294 694.272 22.6625 694.284 24.5957C694.284 24.6687 694.422 24.8019 694.497 24.8032C694.977 24.8918 697.862 24.6221 697.821 24.9945C697.838 26.3009 697.836 26.3493 696.629 26.351L696.485 26.3511C695.315 26.3511 694.146 26.3558 692.976 26.3403C692.488 26.4397 692.831 22.4834 692.734 21.8893C692.734 20.4942 692.731 19.099 692.743 17.7039C692.744 17.6268 692.881 17.4855 692.956 17.4842C694.223 17.464 694.272 17.4664 694.274 18.6486ZM720.809 17.4863C721.306 17.6343 720.952 18.5428 720.975 18.9382C720.972 18.9666 720.874 19.0045 720.819 19.0045C719.938 19.0085 719.058 19.0044 718.177 19.0153C718.12 19.0159 718.02 19.1248 718.015 19.1883C718.049 19.4958 717.77 20.8288 718.144 20.8268C718.599 20.8984 720.601 20.6828 720.704 20.9755C720.724 22.2847 720.73 22.3071 719.42 22.3023C718.946 22.3023 718.348 22.1401 718.043 22.3693C717.826 22.5322 718.016 23.2284 718.007 23.686C718 24.0375 717.963 24.3883 717.951 24.7391C717.951 24.7621 718.06 24.8087 718.118 24.8094C719.07 24.8134 720.022 24.808 720.973 24.8209C721.341 24.9371 721.132 25.7895 721.163 26.1139C721.157 26.1977 721.015 26.3397 720.934 26.341C719.509 26.3546 718.084 26.3559 716.659 26.339C716.567 26.3377 716.398 26.1667 716.397 26.072C716.379 24.6823 716.385 23.2912 716.385 21.9008C716.385 20.5152 716.38 19.1288 716.396 17.7438C716.397 17.6533 716.559 17.4876 716.648 17.4863C718.035 17.4701 719.422 17.4694 720.809 17.4863ZM700.619 17.4845C701.04 17.4886 701.461 17.517 701.881 17.5508C701.912 17.5528 701.956 17.6609 701.956 17.7204C701.96 20.5046 701.962 23.2888 701.948 26.073C701.948 26.1662 701.774 26.3373 701.68 26.3386C700.472 26.3613 700.424 26.3566 700.422 25.2331L700.422 21.9025C700.422 20.4938 700.419 19.0845 700.43 17.6758C700.431 17.6082 700.554 17.4839 700.619 17.4845ZM709.295 17.5177C710.924 17.7874 712.456 18.9601 712.871 20.6128C713.336 22.2844 713.089 24.1851 711.728 25.3788C710.297 26.6644 708.168 26.2568 706.392 26.3386C705.922 26.34 705.646 26.1737 705.689 25.5491C705.771 24.3352 705.713 23.1124 705.713 21.893C705.713 20.5357 705.706 19.1784 705.726 17.8212C705.728 17.7063 705.917 17.4974 706.022 17.4947C707.115 17.4683 708.232 17.3385 709.295 17.5177ZM677.425 18.8891C673.699 18.7769 673.679 24.9273 677.408 24.9259C681.141 24.9732 681.117 18.7593 677.425 18.8891ZM707.433 18.9128C707.077 18.8797 707.328 21.4644 707.257 21.8876C707.257 22.8305 707.255 23.7728 707.261 24.7157C707.261 24.7745 707.321 24.8854 707.348 24.8834C708.191 24.8306 709.044 24.8272 709.873 24.6887C711.871 24.2703 712.048 21.3962 710.887 20.0159C710.043 18.9398 708.699 18.8229 707.433 18.9128ZM726.081 18.9189C725.396 18.9797 725.947 19.5259 725.794 19.8172C725.726 19.9436 725.782 20.1342 725.782 20.2964C725.838 21.0298 725.444 21.872 726.564 21.7098C727.163 21.6456 727.828 21.2319 727.884 20.6418C728.209 19.2832 727.308 18.854 726.081 18.9189Z" fill="#6442FF"/>
</g>
<g clip-path="url(#clip4_210_2204)">
<path fill-rule="evenodd" clip-rule="evenodd" d="M821.89 27.2354C821.89 22.7456 823.37 18.6012 825.868 15.263C824.896 17.3002 824.35 19.5798 824.35 21.9877C824.35 30.6225 831.351 37.622 839.985 37.622C842.794 37.622 845.427 36.8783 847.705 35.5813C848.54 33.3794 849 30.9938 849 28.5C849 17.4543 840.045 8.5 829 8.5C817.955 8.5 809 17.4543 809 28.5C809 39.5457 817.955 48.5 829 48.5C831.96 48.5 834.766 47.8521 837.293 46.6988C828.464 44.621 821.89 36.6988 821.89 27.2354Z" fill="#6442FF"/>
</g>
<g clip-path="url(#clip5_210_2204)">
<path d="M975.91 19.0103C978.589 18.5641 981.241 18.1658 983.684 16.9169C985.045 16.2216 986.37 15.3707 987.508 14.3449C987.522 14.3317 987.537 14.3185 987.551 14.3053C987.551 14.3053 986.623 14.7693 985.463 15.2336C984.467 15.6325 983.299 15.7307 982.244 15.8537C979.987 16.1167 977.587 16.3241 975.602 15.0016C975.732 15.0884 977.296 14.0322 977.419 13.962C979.763 12.6244 982.086 11.1798 983.259 8.62095C983.259 8.62095 981.867 9.54917 980.475 10.1291C979.083 10.7091 976.299 11.4053 976.299 11.4053C976.299 11.4053 978.387 8.96923 978.968 7.80903C979.55 6.64883 980.708 3.6325 980.476 4.09615C980.244 4.5598 979.664 4.79209 978.736 5.72031C977.808 6.64852 975.14 7.80841 975.256 7.57644C975.96 6.16861 976.896 4.82921 977.343 3.30939C977.603 2.42321 977.779 1.28418 978.041 0.499878C977.925 0.847845 976.997 1.66008 976.068 2.93595C975.14 4.21183 973.516 5.48833 973.516 5.48833V3.98016C973.516 3.98016 973.4 2.58799 972.356 2.12403C971.312 1.66007 970.036 3.28423 970.036 3.28423C970.036 3.28423 971.544 3.40022 971.66 3.98016C971.776 4.56011 970.384 5.83629 970.384 5.83629L970.848 6.87958C970.848 6.87958 970.848 13.7242 965.627 15.6963C960.407 17.6684 960.523 18.5966 960.059 19.2926C959.317 20.4055 960.311 21.9836 959.742 23.1088C959.66 23.2712 959.558 23.4274 959.411 23.5369C958.94 23.8913 958.324 23.7867 957.853 23.4722C957.594 23.2334 957.421 22.8864 957.246 22.4948C956.504 20.8308 955.107 17.8 955.107 17.8C955.107 17.8 956.965 16.9424 957.823 16.7994C958.68 16.6564 958.68 18.0857 958.68 18.0857L959.11 17.0851C959.539 16.0844 959.11 15.5128 958.967 15.0841C958.824 14.6554 957.823 14.0835 954.536 12.6542C953.468 12.1899 952.257 11.8996 951.096 12.1374C950.652 12.2295 950.001 12.4204 949.715 12.7843C950.401 12.7818 951.048 12.6088 951.754 12.6965C952.478 12.7863 953.179 13.0151 953.816 13.3704H951.244C949.385 13.3704 948.099 15.8003 948.099 15.8003L949.244 14.7991C950.209 13.9549 951.474 14.2283 952.532 14.2274C951.925 14.2274 951.22 15.2207 950.953 15.6809C950.304 16.8012 950.349 18.0682 950.656 19.2886C950.683 19.3076 950.673 19.2613 950.673 19.23C950.673 18.6583 951.388 18.0863 951.388 18.0863L951.102 19.6586C950.816 21.2309 951.102 23.0892 951.102 22.6602C951.102 22.2313 952.103 21.3739 952.103 21.3739V22.3746C952.103 22.4945 952.075 22.6593 952.026 22.8539C952.015 22.8968 952.002 22.9441 951.986 22.9941C951.561 23.625 950.606 24.0374 949.942 23.5378C949.797 23.4286 949.694 23.2721 949.612 23.1098C949.042 21.9845 950.036 20.4064 949.295 19.2935C948.831 18.5972 948.947 17.6693 943.726 15.6972C938.505 13.7251 938.505 6.8805 938.505 6.8805L938.969 5.83721C938.969 5.83721 937.576 4.56103 937.692 3.98108C937.808 3.40114 939.317 3.28515 939.317 3.28515C939.317 3.28515 938.04 1.661 936.996 2.12495C935.953 2.58891 935.836 3.98108 935.836 3.98108V5.48925C935.836 5.48925 934.213 4.21275 933.285 2.93595C932.357 1.65915 931.429 0.847845 931.313 0.499878C931.574 1.28418 931.751 2.42321 932.011 3.30939C932.457 4.82921 933.394 6.16861 934.098 7.57644C934.214 7.80841 931.545 6.64822 930.617 5.72031C929.689 4.79239 929.109 4.56011 928.877 4.09615C928.645 3.6322 929.805 6.64852 930.385 7.80903C930.965 8.96953 933.055 11.4053 933.055 11.4053C933.055 11.4053 930.269 10.7088 928.877 10.1288C927.484 9.54886 926.092 8.62064 926.092 8.62064C927.265 11.1795 929.59 12.6241 931.933 13.9617C932.055 14.0319 933.62 15.0878 933.749 15.0013C931.765 16.3238 929.364 16.1167 927.108 15.8534C926.052 15.7306 924.884 15.6318 923.888 15.2332C922.728 14.7684 921.8 14.305 921.8 14.305C921.814 14.3185 921.829 14.3317 921.844 14.3446C922.981 15.3704 924.307 16.2216 925.667 16.9163C928.111 18.1661 930.762 18.5641 933.442 19.0103C933.534 19.0256 935.086 19.3858 935.141 19.2935C934.201 20.8609 926.662 23.2181 924.512 23.3022C926.272 23.5286 928.025 23.7704 929.796 23.9008C931.833 24.0509 934.071 24.235 936.07 23.702C939.55 22.7738 938.274 23.122 938.274 23.122C938.099 23.1699 937.645 24.1877 937.532 24.3494C936.946 25.1871 936.259 25.9619 935.439 26.5744C933.546 27.9881 931.545 29.3167 929.342 30.198C929.271 30.2262 929.214 30.2505 929.182 30.3152C929.514 30.5358 930.19 30.4134 930.567 30.3965C933.869 30.2483 936.544 28.9933 939.35 27.3826C939.749 27.1528 940.264 26.9328 940.595 26.6017L940.943 26.2537C940.395 27.282 939.992 28.414 939.688 29.5352C939.111 31.6574 939.206 33.8099 939.287 35.9885C939.307 36.5129 939.307 37.0398 939.314 37.5648C939.316 37.7097 939.341 37.8523 939.341 37.9978C939.761 37.4175 940.031 36.6127 940.354 35.9597C940.691 35.2797 941.032 34.6022 941.386 33.9308C941.9 32.9547 942.401 31.8381 943.147 31.0099C944.19 29.8497 944.887 29.0378 944.887 29.0378C944.887 29.0378 945.003 35.8824 945.699 38.0865L946.395 40.2906C946.451 38.2583 946.45 36.0883 947.08 34.1373C947.437 33.0327 948.085 31.9832 948.715 31.0096C949.044 31.8442 949.345 32.6933 949.608 33.5512C950.072 35.0695 949.922 36.3298 949.551 37.8576C949.336 38.7447 949.126 39.7005 948.715 40.5225C948.251 41.4508 950.339 39.2464 950.687 38.6664C951.035 38.0865 952.543 35.1861 952.427 33.9102C952.311 32.6344 953.239 33.7943 953.47 34.7225C953.701 35.6507 954.166 37.2748 952.89 39.7109C951.614 42.147 947.323 46.7881 947.323 46.7881L950.455 44.7L948.482 50.3844L952.079 46.2082L950.339 52.8208C950.339 52.8208 953.095 48.2901 953.239 47.7163C953.339 47.3159 954.39 54.521 954.676 56.5002C954.961 54.521 956.012 47.3159 956.112 47.7163C956.256 48.2901 959.013 52.8208 959.013 52.8208L957.272 46.2082L960.869 50.3844L958.897 44.7L962.029 46.7881C962.029 46.7881 957.737 42.1476 956.461 39.7115C955.184 37.2755 955.649 35.6513 955.881 34.7231C956.113 33.7949 957.041 32.635 956.924 33.9109C956.807 35.1867 958.316 38.0871 958.664 38.667C959.012 39.247 961.1 41.4514 960.636 40.5232C960.225 39.7011 960.016 38.7453 959.8 37.8582C959.429 36.3307 959.278 35.0704 959.743 33.5518C960.006 32.6927 960.307 31.8448 960.636 31.0102C961.266 31.9838 961.914 33.0317 962.271 34.1379C962.901 36.0889 962.9 38.2589 962.956 40.2912L963.652 38.0871C964.348 35.883 964.464 29.0384 964.464 29.0384C964.464 29.0384 965.16 29.8503 966.204 31.0105C966.95 31.839 967.451 32.9553 967.965 33.9314C968.319 34.6025 968.661 35.2816 968.997 35.9603C969.32 36.6133 969.59 37.4181 970.01 37.9984C970.01 37.853 970.035 37.7103 970.037 37.5654C970.044 37.0404 970.044 36.5136 970.064 35.9891C970.145 33.8105 970.24 31.658 969.663 29.5358C969.358 28.4146 968.957 27.2826 968.408 26.2544L968.756 26.6023C969.087 26.9334 969.601 27.1546 970.001 27.3833C972.807 28.9939 975.482 30.2489 978.784 30.3971C979.161 30.414 979.837 30.5364 980.169 30.3158C980.139 30.2508 980.08 30.2268 980.009 30.1986C977.806 29.3173 975.805 27.9893 973.912 26.575C973.091 25.9613 972.405 25.1877 971.819 24.35C971.705 24.1877 971.252 23.1699 971.076 23.1227C971.076 23.1227 969.8 22.7747 973.281 23.7026C975.28 24.2356 977.517 24.0515 979.555 23.9014C981.326 23.771 983.079 23.5292 984.839 23.3028C982.688 23.2187 975.149 20.8615 974.209 19.2941C974.265 19.3858 975.817 19.0256 975.91 19.0103V19.0103Z" fill="#6442FF"/>
</g>
<g clip-path="url(#clip6_210_2204)">
<path fill-rule="evenodd" clip-rule="evenodd" d="M1081.38 5.87478C1085.87 5.93019 1090.36 5.91619 1094.85 5.88469C1095.69 5.87944 1096.23 6.00281 1096.61 6.89969C1102.83 21.5647 1109.09 36.2131 1115.33 50.8676C1115.4 51.0312 1115.38 51.2333 1115.42 51.5833C1112.76 51.5833 1110.15 51.5264 1107.55 51.6087C1106.34 51.6472 1106.26 50.7363 1105.96 50.0363C1101.05 38.4854 1096.12 26.9407 1091.32 15.3461C1090.69 13.8297 1089.94 13.2924 1088.37 13.4324C1086.78 13.5742 1085.29 13.1174 1084.45 15.3811C1082.42 20.8717 1079.99 26.2162 1077.73 31.6202H1068.86C1072.43 23.4503 1076.02 15.2874 1079.55 7.10006C1079.94 6.19619 1080.39 5.86369 1081.38 5.87478ZM1074.32 39.5584C1072.76 43.2377 1071.19 46.9127 1069.65 50.6009C1069.34 51.3385 1068.93 51.6299 1068.07 51.6089C1065.49 51.5424 1062.91 51.5844 1060 51.5844C1061.81 47.4719 1063.55 43.5151 1065.29 39.5601C1066.43 39.5601 1067.69 39.5597 1069.04 39.5595L1073.24 39.5586L1074.32 39.5584Z" fill="#6442FF"/>
</g>
</g>
<defs>
<clipPath id="clip0_210_2204">
<rect width="32" height="44" fill="white" transform="translate(289 6.5)"/>
</clipPath>
<clipPath id="clip1_210_2204">
<rect width="64" height="43" fill="white" transform="translate(393 7)"/>
</clipPath>
<clipPath id="clip2_210_2204">
<rect width="56" height="26" fill="white" transform="translate(529 15.5)"/>
</clipPath>
<clipPath id="clip3_210_2204">
<rect width="80" height="33" fill="white" transform="translate(657 12)"/>
</clipPath>
<clipPath id="clip4_210_2204">
<rect width="40" height="40" fill="white" transform="translate(809 8.5)"/>
</clipPath>
<clipPath id="clip5_210_2204">
<rect width="67" height="56.0003" fill="white" transform="translate(921 0.499878)"/>
</clipPath>
<clipPath id="clip6_210_2204">
<rect width="56" height="47" fill="white" transform="translate(1060 5)"/>
</clipPath>
</defs>
</svg>
