<svg width="20" height="20" viewBox="0 0 20 20" fill="none" xmlns="http://www.w3.org/2000/svg">
<g clip-path="url(#clip0_271_5535)">
<path d="M2.5 10.8335H4.16667V9.16683H2.5V10.8335ZM2.5 14.1668H4.16667V12.5002H2.5V14.1668ZM2.5 7.50016H4.16667V5.8335H2.5V7.50016ZM5.83333 10.8335H17.5V9.16683H5.83333V10.8335ZM5.83333 14.1668H17.5V12.5002H5.83333V14.1668ZM5.83333 5.8335V7.50016H17.5V5.8335H5.83333ZM2.5 10.8335H4.16667V9.16683H2.5V10.8335ZM2.5 14.1668H4.16667V12.5002H2.5V14.1668ZM2.5 7.50016H4.16667V5.8335H2.5V7.50016ZM5.83333 10.8335H17.5V9.16683H5.83333V10.8335ZM5.83333 14.1668H17.5V12.5002H5.83333V14.1668ZM5.83333 5.8335V7.50016H17.5V5.8335H5.83333Z" fill="#6442FF"/>
</g>
<defs>
<clipPath id="clip0_271_5535">
<rect width="20" height="20" fill="white"/>
</clipPath>
</defs>
</svg>
