<svg width="151" height="20" viewBox="0 0 151 20" fill="none" xmlns="http://www.w3.org/2000/svg">
<path d="M17 1H1C0.4 1 0 1.4 0 2V18C0 18.5 0.4 19 1 19H9.6V12H7.3V9.3H9.6V7.3C9.6 5 11 3.7 13.1 3.7C14.1 3.7 14.9 3.8 15.2 3.8V6.2H13.8C12.7 6.2 12.5 6.7 12.5 7.5V9.2H15.2L14.8 12H12.5V19H17C17.5 19 18 18.6 18 18V2C18 1.4 17.6 1 17 1Z" fill="#222339"/>
<path d="M52 1.8C54.7 1.8 55 1.8 56 1.9C58.8 2 60 3.3 60.1 6C60.1 7 60.2 7.4 60.2 10C60.2 12.6 60.2 13 60.1 14C60 16.7 58.7 18 56 18.1C54.9 18.1 54.6 18.2 52 18.2C49.3 18.2 49 18.2 48 18.1C45.2 18 44 16.7 43.9 14C43.9 12.9 43.8 12.6 43.8 10C43.8 7.3 43.8 7 43.9 6C44 3.3 45.2 2 48 1.9C49 1.8 49.3 1.8 52 1.8V1.8ZM52 0C49.3 0 48.9 -9.68575e-08 47.9 0.0999999C44.2 0.2 42.2 2.2 42.1 5.9C42 6.9 42 7.3 42 10C42 12.7 42 13.1 42.1 14.1C42.3 17.7 44.3 19.7 47.9 19.9C48.9 20 49.3 20 52 20C54.7 20 55.1 20 56.1 19.9C59.7 19.7 61.7 17.7 61.9 14.1C61.9 13 62 12.7 62 10C62 7.3 62 6.9 61.9 5.9C61.7 2.3 59.7 0.2 56.1 0.0999999C55.1 -9.68575e-08 54.7 0 52 0V0ZM52 4.9C49.2 4.9 46.9 7.2 46.9 10C46.9 12.8 49.2 15.1 52 15.1C54.8 15.1 57.1 12.8 57.1 10C57.1 7.2 54.8 4.9 52 4.9V4.9ZM52 13.3C50.2 13.3 48.7 11.8 48.7 10C48.7 8.2 50.2 6.7 52 6.7C53.8 6.7 55.3 8.2 55.3 10C55.3 11.8 53.8 13.3 52 13.3ZM57.3 3.5C56.6 3.5 56.1 4 56.1 4.7C56.1 5.4 56.6 5.9 57.3 5.9C58 5.9 58.5 5.4 58.5 4.7C58.5 4 58 3.5 57.3 3.5Z" fill="#222339"/>
<path d="M107 3.10526C106.184 3.42105 105.369 3.73684 104.553 3.8421C105.471 3.31579 106.083 2.36842 106.49 1.31579C105.675 1.84211 104.757 2.15789 103.738 2.36842C102.922 1.52632 101.801 1 100.578 1C97.8252 1 95.6845 3.73684 96.3981 6.57895C92.7282 6.36842 89.568 4.57895 87.4272 1.84211C86.3058 3.84211 86.8155 6.47368 88.7524 7.8421C88.0388 7.8421 87.4272 7.63158 86.8155 7.31579C86.8155 9.42105 88.2427 11.3158 90.2816 11.8421C89.6699 12.0526 88.9563 12.0526 88.3447 11.9474C88.8544 13.7368 90.4854 15 92.4223 15.1053C90.5874 16.5789 88.3447 17.2105 86 17C87.9369 18.2632 90.1796 19 92.6262 19C100.68 19 105.165 11.9474 104.961 5.52632C105.675 4.78947 106.49 4.05263 107 3.10526V3.10526Z" fill="#222339"/>
<path d="M150.045 2.33141L146.57 16.6511C146.407 17.3256 145.651 17.673 145.031 17.3528L140.637 15.0843L138.559 18.4837C137.993 19.4102 136.563 19.0082 136.563 17.9251V14.1374C136.563 13.8444 136.685 13.5651 136.897 13.3607L145.46 5.18582C145.453 5.08364 145.344 4.99507 145.235 5.07001L135.016 12.1822L131.583 10.411C130.779 9.9954 130.813 8.83047 131.644 8.46941L148.573 1.09155C149.384 0.737305 150.256 1.46623 150.045 2.33141Z" fill="#222339"/>
</svg>
