<svg width="216" height="217" viewBox="0 0 216 217" fill="none" xmlns="http://www.w3.org/2000/svg">
<path d="M108 0.75C86.6396 0.75 65.759 7.08409 47.9985 18.9513C30.2379 30.8185 16.3953 47.6858 8.22106 67.4202C0.046795 87.1546 -2.09197 108.87 2.07524 129.82C6.24244 150.77 16.5284 170.013 31.6325 185.117C46.7366 200.222 65.9803 210.508 86.9303 214.675C107.88 218.842 129.595 216.703 149.33 208.529C169.064 200.355 185.932 186.512 197.799 168.752C209.666 150.991 216 130.11 216 108.75C216 94.5672 213.207 80.5233 207.779 67.4202C202.352 54.317 194.396 42.4112 184.368 32.3825C174.339 22.3537 162.433 14.3985 149.33 8.97101C136.227 3.5435 122.183 0.75 108 0.75ZM33.4361 138.56C31.7322 138.587 30.0564 138.123 28.6095 137.223C27.1626 136.323 26.0059 135.025 25.2778 133.484C24.5497 131.943 24.2811 130.225 24.5042 128.536C24.7273 126.846 25.4327 125.257 26.5358 123.958L71.5439 78.8618C79.8418 70.4662 88.5405 66.0582 96.4475 66.0582C103.289 66.0582 109.75 69.0588 115.995 75.2651L149.607 108.848H124.547L107.844 92.1444C102.146 86.4463 99.3405 84.2472 95.8415 84.2472C92.147 84.2472 88.9999 86.544 80.8388 94.7442L39.4371 136.058C37.8365 137.638 35.6851 138.535 33.4361 138.56ZM154.054 141.854C148.19 147.718 142.55 151.461 136.852 151.461C132.346 151.461 127.948 149.36 123.169 144.561L117.07 138.355C110.228 131.357 107.668 129.852 100.963 129.852H76.939C75.7521 129.891 74.5693 129.691 73.4611 129.264C72.3529 128.837 71.3419 128.192 70.4883 127.366C69.6347 126.54 68.9559 125.551 68.4923 124.458C68.0288 123.364 67.7899 122.189 67.7899 121.001C67.7899 119.814 68.0288 118.638 68.4923 117.545C68.9559 116.451 69.6347 115.462 70.4883 114.637C71.3419 113.811 72.3529 113.166 73.4611 112.739C74.5693 112.312 75.7521 112.112 76.939 112.151H105.85C113.747 112.151 118.047 115.455 123.345 120.654L131.164 128.356C133.861 131.054 135.357 132.354 136.764 132.354C138.172 132.354 139.696 131.054 142.365 128.356L175.996 94.7442C176.853 93.7648 177.916 92.9877 179.109 92.4689C180.302 91.95 181.596 91.7023 182.896 91.7436C184.637 91.7679 186.331 92.3081 187.765 93.2959C189.198 94.2836 190.306 95.6745 190.949 97.2923C191.591 98.9102 191.739 100.682 191.374 102.384C191.009 104.087 190.147 105.642 188.897 106.854L154.054 141.854Z" fill="#6442FF"/>
</svg>
