<svg width="100" height="100" viewBox="0 0 100 100" fill="none" xmlns="http://www.w3.org/2000/svg">
<path d="M50 0C40.1109 0 30.444 2.93245 22.2215 8.42652C13.9991 13.9206 7.59043 21.7295 3.80605 30.8658C0.0216644 40.0021 -0.968503 50.0555 0.960758 59.7545C2.89002 69.4536 7.65206 78.3627 14.6447 85.3553C21.6373 92.3479 30.5465 97.11 40.2455 99.0392C49.9445 100.969 59.9979 99.9783 69.1342 96.194C78.2705 92.4096 86.0794 86.0009 91.5735 77.7785C97.0676 69.556 100 59.8891 100 50C100 43.4339 98.7067 36.9321 96.194 30.8658C93.6813 24.7995 89.9983 19.2876 85.3553 14.6447C80.7124 10.0017 75.2005 6.31876 69.1342 3.80602C63.0679 1.29329 56.5661 0 50 0ZM15.4797 63.8009C14.6908 63.8137 13.915 63.5988 13.2451 63.182C12.5753 62.7652 12.0397 62.1642 11.7027 61.4508C11.3656 60.7375 11.2413 59.9422 11.3445 59.16C11.4478 58.3779 11.7744 57.6421 12.2851 57.0407L33.1222 36.1629C36.9638 32.276 40.991 30.2353 44.6516 30.2353C47.819 30.2353 50.81 31.6244 53.7014 34.4977L69.2625 50.0452H57.6606L49.9276 42.3122C47.2896 39.6742 45.991 38.6561 44.3711 38.6561C42.6606 38.6561 41.2036 39.7194 37.4254 43.5158L18.2579 62.6425C17.5169 63.3741 16.5209 63.7893 15.4797 63.8009ZM71.3213 65.3258C68.6063 68.0407 65.9955 69.7737 63.3575 69.7737C61.2715 69.7737 59.2353 68.8009 57.0226 66.5792L54.1991 63.7059C51.0317 60.466 49.8462 59.7692 46.7421 59.7692H35.6199C35.0704 59.7875 34.5228 59.695 34.0098 59.4973C33.4967 59.2996 33.0287 59.0008 32.6335 58.6185C32.2383 58.2362 31.924 57.7784 31.7094 57.2722C31.4948 56.766 31.3842 56.2218 31.3842 55.6719C31.3842 55.1221 31.4948 54.5779 31.7094 54.0717C31.924 53.5655 32.2383 53.1076 32.6335 52.7254C33.0287 52.3431 33.4967 52.0442 34.0098 51.8465C34.5228 51.6488 35.0704 51.5564 35.6199 51.5746H49.0045C52.6606 51.5746 54.6516 53.1041 57.1041 55.5113L60.724 59.0769C61.9729 60.3258 62.6652 60.9276 63.3168 60.9276C63.9683 60.9276 64.6742 60.3258 65.9095 59.0769L81.4796 43.5158C81.8762 43.0624 82.3685 42.7027 82.9209 42.4624C83.4733 42.2222 84.0721 42.1076 84.6742 42.1267C85.4801 42.1379 86.2645 42.388 86.9281 42.8453C87.5917 43.3026 88.1048 43.9465 88.4022 44.6955C88.6997 45.4445 88.7683 46.265 88.5992 47.053C88.4301 47.841 88.0311 48.5611 87.4525 49.1222L71.3213 65.3258Z" fill="#6442FF"/>
</svg>
