<svg width="47" height="47" viewBox="0 0 47 47" fill="none" xmlns="http://www.w3.org/2000/svg">
<path d="M23.1016 0C18.5326 0 14.0661 1.35489 10.2671 3.89333C6.46802 6.43176 3.50702 10.0397 1.75852 14.261C0.0100096 18.4823 -0.44748 23.1272 0.443902 27.6085C1.33528 32.0898 3.5355 36.2061 6.76632 39.4369C9.99714 42.6678 14.1135 44.868 18.5947 45.7594C23.076 46.6507 27.721 46.1932 31.9422 44.4447C36.1635 42.6962 39.7715 39.7352 42.3099 35.9362C44.8484 32.1372 46.2033 27.6707 46.2033 23.1016C46.2033 20.0679 45.6057 17.0638 44.4448 14.261C43.2838 11.4582 41.5821 8.91149 39.4369 6.76631C37.2918 4.62112 34.7451 2.91947 31.9422 1.75851C29.1394 0.597541 26.1354 0 23.1016 0ZM7.15211 29.4781C6.78763 29.484 6.42919 29.3847 6.11969 29.1921C5.81019 28.9996 5.56276 28.7219 5.40701 28.3923C5.25127 28.0627 5.19382 27.6952 5.24155 27.3339C5.28927 26.9725 5.44015 26.6325 5.67611 26.3547L15.3035 16.7084C17.0785 14.9126 18.9392 13.9697 20.6305 13.9697C22.0939 13.9697 23.4759 14.6115 24.8118 15.9391L32.0015 23.1225H26.6411L23.0682 19.5496C21.8493 18.3308 21.2493 17.8604 20.5009 17.8604C19.7106 17.8604 19.0374 18.3517 17.2917 20.1057L8.43576 28.9429C8.09339 29.2809 7.63317 29.4728 7.15211 29.4781ZM32.9528 30.1826C31.6984 31.437 30.4921 32.2377 29.2732 32.2377C28.3094 32.2377 27.3686 31.7882 26.3463 30.7617L25.0418 29.4342C23.5783 27.9373 23.0306 27.6153 21.5964 27.6153H16.4576C16.2037 27.6238 15.9507 27.581 15.7136 27.4897C15.4766 27.3984 15.2603 27.2603 15.0777 27.0837C14.8951 26.907 14.7499 26.6955 14.6508 26.4616C14.5516 26.2277 14.5005 25.9763 14.5005 25.7222C14.5005 25.4682 14.5516 25.2168 14.6508 24.9829C14.7499 24.749 14.8951 24.5375 15.0777 24.3608C15.2603 24.1842 15.4766 24.0461 15.7136 23.9548C15.9507 23.8634 16.2037 23.8207 16.4576 23.8292H22.6417C24.3309 23.8292 25.2508 24.5358 26.3839 25.648L28.0565 27.2955C28.6335 27.8725 28.9533 28.1505 29.2544 28.1505C29.5555 28.1505 29.8816 27.8725 30.4523 27.2955L37.6462 20.1057C37.8295 19.8962 38.0569 19.73 38.3122 19.619C38.5674 19.508 38.8441 19.4551 39.1222 19.4639C39.4946 19.4691 39.857 19.5846 40.1636 19.7959C40.4702 20.0072 40.7073 20.3047 40.8447 20.6508C40.9822 20.9969 41.0138 21.3759 40.9357 21.74C40.8576 22.1041 40.6732 22.4368 40.4059 22.696L32.9528 30.1826Z" fill="#6442FF"/>
</svg>
