<svg width="15" height="19" viewBox="0 0 15 19" fill="none" xmlns="http://www.w3.org/2000/svg">
<path d="M5.84167 17.0083C5.84167 17.925 6.58333 18.6667 7.5 18.6667C8.41667 18.6667 9.15833 17.925 9.15833 17.0083H5.84167ZM7.5 4.5C9.8 4.5 11.6667 6.36667 11.6667 8.66667V14.5H3.33333V8.66667C3.33333 6.36667 5.2 4.5 7.5 4.5ZM7.5 0.75C6.80833 0.75 6.25 1.30833 6.25 2V2.975C3.63333 3.54167 1.66667 5.875 1.66667 8.66667V13.6667L0 15.3333V16.1667H15V15.3333L13.3333 13.6667V8.66667C13.3333 5.875 11.3667 3.54167 8.75 2.975V2C8.75 1.30833 8.19167 0.75 7.5 0.75Z" fill="#565773"/>
</svg>
